<svg width="60" height="60" viewBox="0 0 60 60" fill="none" xmlns="http://www.w3.org/2000/svg">
<g clip-path="url(#clip0_716_2)">
<path d="M9.74603 45.794C10.1081 45.332 10.606 45.0626 11.134 45.0626H59.0194C59.8944 45.0626 60.3319 46.41 59.7133 47.1992L50.2539 59.2685C49.8919 59.7305 49.394 60 48.866 60H0.980628C0.105597 60 -0.331919 58.6526 0.286638 57.8633L9.74603 45.794Z" fill="url(#paint0_linear_716_2)"/>
<path d="M9.74603 0.731473C10.1232 0.26949 10.6211 0 11.134 0H59.0194C59.8944 0 60.3319 1.34745 59.7133 2.13667L50.2539 14.206C49.8919 14.6679 49.394 14.9374 48.866 14.9374H0.980628C0.105597 14.9374 -0.331919 13.59 0.286638 12.8008L9.74603 0.731473Z" fill="url(#paint1_linear_716_2)"/>
<path d="M50.2539 23.1184C49.8919 22.6564 49.394 22.3869 48.866 22.3869H0.980628C0.105597 22.3869 -0.331919 23.7344 0.286638 24.5236L9.74603 36.5929C10.1081 37.0549 10.606 37.3243 11.134 37.3243H59.0194C59.8944 37.3243 60.3319 35.9769 59.7133 35.1877L50.2539 23.1184Z" fill="url(#paint2_linear_716_2)"/>
</g>
<defs>
<linearGradient id="paint0_linear_716_2" x1="54.4449" y1="-7.20988" x2="6.89028" y2="64.1796" gradientUnits="userSpaceOnUse">
<stop stop-color="#00FFA3"/>
<stop offset="1" stop-color="#DC1FFF"/>
</linearGradient>
<linearGradient id="paint1_linear_716_2" x1="39.9541" y1="-16.8626" x2="-7.60054" y2="54.5268" gradientUnits="userSpaceOnUse">
<stop stop-color="#00FFA3"/>
<stop offset="1" stop-color="#DC1FFF"/>
</linearGradient>
<linearGradient id="paint2_linear_716_2" x1="47.1534" y1="-12.067" x2="-0.401258" y2="59.3224" gradientUnits="userSpaceOnUse">
<stop stop-color="#00FFA3"/>
<stop offset="1" stop-color="#DC1FFF"/>
</linearGradient>
<clipPath id="clip0_716_2">
<rect width="60" height="60" fill="white"/>
</clipPath>
</defs>
</svg>
